<svg width="19" height="19" viewBox="0 0 19 19" fill="none" xmlns="http://www.w3.org/2000/svg">
<g id="linkedin-brands" clip-path="url(#clip0_472_611)">
<path id="Vector" d="M1.59279 0.810547H16.4399C16.546 0.833535 16.6539 0.851807 16.7588 0.8801C17.5398 1.08935 18.0066 1.69882 18.0072 2.53817C18.01 7.39271 18.01 12.2474 18.0072 17.1024C18.0181 17.4802 17.9019 17.8507 17.6771 18.1545C17.3105 18.6355 16.8101 18.8123 16.2313 18.8123C11.5288 18.8123 6.82633 18.8123 2.12386 18.8123C1.90813 18.8123 1.69181 18.7982 1.47549 18.7834C0.77466 18.7345 0.214112 18.1975 0.0608608 17.5144C0.0408202 17.4248 0.0254954 17.3346 0.0078125 17.245V2.39375C0.0274545 2.34665 0.0422661 2.29767 0.0520197 2.24758C0.110963 1.57916 0.688014 0.958494 1.33992 0.860059C1.42598 0.847681 1.50673 0.827051 1.59279 0.810547ZM9.90846 8.46016C9.90846 8.29512 9.90846 8.11299 9.90846 7.92968C9.90846 7.59488 9.7222 7.4098 9.38682 7.40921H7.43462C7.08097 7.40921 6.89412 7.59429 6.89412 7.95031C6.89412 10.7356 6.89412 13.5206 6.89412 16.3055C6.89412 16.675 7.08509 16.8625 7.46056 16.8631C8.08928 16.8631 8.71663 16.8631 9.34261 16.8631C9.72927 16.8631 9.90846 16.6809 9.90846 16.2919C9.90846 14.873 9.90846 13.454 9.90846 12.0351C9.90649 11.5773 10.0091 11.1251 10.2085 10.713C10.4973 10.1123 11.0384 9.80524 11.7092 9.86595C12.341 9.9249 12.7802 10.2862 12.9405 10.9399C13.0241 11.2743 13.069 11.6173 13.0743 11.962C13.0884 13.4155 13.0796 14.8696 13.0802 16.3237C13.0802 16.6851 13.257 16.8619 13.6195 16.8625C14.2761 16.8625 14.9328 16.8625 15.5894 16.8625C15.9707 16.8625 16.1629 16.675 16.1617 16.2896C16.1546 14.5949 16.1535 12.9009 16.1281 11.2069C16.1274 10.5148 15.9995 9.82871 15.7509 9.18281C15.4638 8.4637 15.007 7.89726 14.2891 7.57248C13.6018 7.26126 12.8745 7.22236 12.1377 7.29132C11.6019 7.34143 11.082 7.46815 10.6435 7.79706C10.38 7.99687 10.1507 8.23972 9.90846 8.46016ZM2.59953 12.1341V16.2831C2.59953 16.6727 2.79051 16.8637 3.18248 16.8648C3.76837 16.8648 4.35427 16.8648 4.94075 16.8648C5.44117 16.8648 5.61329 16.6915 5.61329 16.1876V8.0847C5.61329 8.03754 5.61329 7.99039 5.61329 7.94382C5.59796 7.60962 5.39756 7.41334 5.06512 7.41334C4.43207 7.41334 3.79922 7.41334 3.16656 7.41334C2.7852 7.41334 2.60071 7.60078 2.60071 7.98685L2.59953 12.1341ZM6.03885 4.72023C6.03978 4.46565 5.99056 4.21337 5.89399 3.97781C5.79743 3.74225 5.65541 3.52802 5.47604 3.34734C5.29668 3.16667 5.08349 3.02309 4.84864 2.9248C4.61379 2.82652 4.36188 2.77545 4.10729 2.77453C3.85271 2.7736 3.60043 2.82282 3.36487 2.91939C3.12931 3.01596 2.91508 3.15798 2.7344 3.33734C2.55373 3.5167 2.41015 3.72989 2.31186 3.96474C2.21358 4.19959 2.16252 4.4515 2.16159 4.70609C2.16159 5.81657 3.02687 6.64472 4.10258 6.65533C5.16119 6.66653 6.03709 5.78062 6.03827 4.72023H6.03885Z" fill="#fff"/>
</g>
<defs>
<clipPath id="clip0_472_611">
<rect width="18" height="18" fill="white" transform="translate(0.0117188 0.810547)"/>
</clipPath>
</defs>
</svg>
