<svg width="19" height="19" viewBox="0 0 19 19" fill="none" xmlns="http://www.w3.org/2000/svg">
<g id="youtube-brands" clip-path="url(#clip0_472_606)">
<path id="Vector" d="M18.8208 6.96274V12.6587C18.7888 12.8587 18.7688 13.0407 18.7248 13.2267C18.5451 14.0715 18.077 14.8274 17.4007 15.3646C16.7245 15.9018 15.8823 16.1868 15.0188 16.1707C11.5521 16.1707 8.08543 16.1707 4.61876 16.1707C4.33243 16.1743 4.04661 16.1454 3.76676 16.0847C2.92694 15.9067 2.17479 15.4431 1.63837 14.7729C1.10195 14.1026 0.814426 13.2672 0.82476 12.4087C0.82476 10.6807 0.82476 8.95274 0.82476 7.22474C0.813321 6.56482 0.983522 5.91445 1.31676 5.34474C1.64249 4.75619 2.12412 4.26879 2.70875 3.93608C3.29338 3.60336 3.9584 3.4382 4.63076 3.45874C8.08876 3.45874 11.5448 3.45874 15.0008 3.45874C15.0888 3.45874 15.1768 3.45874 15.2648 3.45874C16.0539 3.49725 16.8102 3.78612 17.4241 4.28347C18.0379 4.78082 18.4774 5.46078 18.6788 6.22474C18.7408 6.46674 18.7728 6.71674 18.8208 6.96274ZM7.34276 9.80874C7.34276 10.5747 7.34276 11.3427 7.34276 12.1107C7.34276 12.4287 7.46076 12.5107 7.74276 12.3687C9.31209 11.6221 10.8801 10.8727 12.4468 10.1207C12.5368 10.0787 12.6588 9.96874 12.6468 9.89874C12.6328 9.84612 12.6078 9.7971 12.5733 9.755C12.5388 9.7129 12.4956 9.67871 12.4468 9.65474C10.8788 8.85474 9.30809 8.05474 7.73476 7.25474C7.46676 7.11874 7.33476 7.19474 7.33476 7.49874C7.34076 8.27474 7.34276 9.04274 7.34276 9.80874Z" fill="#fff"/>
</g>
<defs>
<clipPath id="clip0_472_606">
<rect width="18" height="18" fill="white" transform="translate(0.820312 0.810547)"/>
</clipPath>
</defs>
</svg>
