<svg width="25" height="25" viewBox="0 0 25 25" fill="none" xmlns="http://www.w3.org/2000/svg">
<g id="Frame">
<path id="Vector" d="M13.2146 20.4041C17.2267 19.9038 20.3313 16.4813 20.3313 12.3337C20.3313 7.84174 16.6899 4.20033 12.1979 4.20033C7.706 4.20033 4.06458 7.84174 4.06458 12.3337C4.06458 16.4813 7.16917 19.9038 11.1813 20.4041V14.367H9.14792V12.3337H11.1813V10.6519C11.1813 9.29235 11.3228 8.79934 11.5886 8.3023C11.8544 7.80526 12.2445 7.41519 12.7415 7.14937C13.1306 6.9413 13.6132 6.81572 14.4567 6.76186C14.7914 6.74048 15.2247 6.76774 15.7563 6.84366V8.77533H15.2479C14.3153 8.77533 13.9305 8.81937 13.7005 8.94239C13.5578 9.0187 13.458 9.11853 13.3816 9.26122C13.2586 9.49124 13.2146 9.71933 13.2146 10.6519V12.3337H15.7563L15.2479 14.367H13.2146V20.4041ZM12.1979 22.5003C6.58302 22.5003 2.03125 17.9485 2.03125 12.3337C2.03125 6.71876 6.58302 2.16699 12.1979 2.16699C17.8128 2.16699 22.3646 6.71876 22.3646 12.3337C22.3646 17.9485 17.8128 22.5003 12.1979 22.5003Z" fill="white"/>
</g>
</svg>
