<svg width="25" height="25" viewBox="0 0 25 25" fill="none" xmlns="http://www.w3.org/2000/svg">
<g id="instagram-line">
<path id="Vector" d="M12.4792 9.28366C10.7942 9.28366 9.42917 10.6491 9.42917 12.3337C9.42917 14.0186 10.7947 15.3837 12.4792 15.3837C14.1641 15.3837 15.5292 14.0182 15.5292 12.3337C15.5292 10.6487 14.1637 9.28366 12.4792 9.28366ZM12.4792 7.25033C15.2856 7.25033 17.5625 9.52471 17.5625 12.3337C17.5625 15.1402 15.2881 17.417 12.4792 17.417C9.67269 17.417 7.39583 15.1426 7.39583 12.3337C7.39583 9.52718 9.67022 7.25033 12.4792 7.25033ZM19.0875 6.99529C19.0875 7.69691 18.5174 8.26615 17.8167 8.26615C17.1151 8.26615 16.5459 7.69603 16.5459 6.99529C16.5459 6.29456 17.1159 5.72533 17.8167 5.72533C18.5165 5.72444 19.0875 6.29456 19.0875 6.99529ZM12.4792 4.20033C9.96345 4.20033 9.5534 4.20698 8.38331 4.25909C7.58612 4.29651 7.05174 4.40373 6.55523 4.59649C6.114 4.76762 5.79571 4.97195 5.45658 5.31108C5.11615 5.65152 4.91218 5.96895 4.74174 6.41039C4.54854 6.90803 4.44135 7.44157 4.4046 8.23766C4.35198 9.36011 4.34583 9.75239 4.34583 12.3337C4.34583 14.8494 4.35249 15.2594 4.40459 16.4294C4.44203 17.2263 4.54939 17.7614 4.74168 18.2568C4.91326 18.6986 5.11801 19.0176 5.4555 19.3552C5.79728 19.6965 6.11566 19.9011 6.55291 20.0699C7.05546 20.2642 7.58951 20.3715 8.38316 20.4082C9.50562 20.4608 9.8979 20.467 12.4792 20.467C14.9949 20.467 15.405 20.4603 16.5749 20.4082C17.3701 20.3709 17.9056 20.2633 18.4023 20.0711C18.8429 19.9 19.163 19.6945 19.5007 19.3573C19.8425 19.015 20.0467 18.6974 20.2157 18.2591C20.4095 17.7584 20.5171 17.2236 20.5538 16.4297C20.6063 15.3072 20.6125 14.9149 20.6125 12.3337C20.6125 9.81794 20.6058 9.40791 20.5538 8.23788C20.5163 7.44254 20.4087 6.90617 20.2163 6.40973C20.0456 5.96971 19.8406 5.65045 19.5017 5.31108C19.1607 4.97009 18.8441 4.76654 18.4024 4.59624C17.9051 4.40319 17.3708 4.29585 16.5751 4.2591C15.4527 4.20648 15.0604 4.20033 12.4792 4.20033ZM12.4792 2.16699C15.2411 2.16699 15.5859 2.17716 16.6704 2.22799C17.7522 2.27798 18.4902 2.44912 19.1384 2.70074C19.8084 2.95915 20.3744 3.3082 20.9395 3.87329C21.5037 4.4384 21.8529 5.00603 22.1121 5.67449C22.3628 6.32177 22.534 7.06054 22.5849 8.14245C22.6331 9.2269 22.6459 9.57171 22.6459 12.3337C22.6459 15.0956 22.6357 15.4404 22.5849 16.5249C22.5348 17.6068 22.3628 18.3447 22.1121 18.9928C21.8537 19.663 21.5037 20.2289 20.9395 20.7941C20.3744 21.3583 19.8059 21.7073 19.1384 21.9666C18.4902 22.2174 17.7522 22.3885 16.6704 22.4393C15.5859 22.4876 15.2411 22.5003 12.4792 22.5003C9.71722 22.5003 9.3724 22.4902 8.28796 22.4393C7.20605 22.3893 6.46897 22.2174 5.82 21.9666C5.15069 21.7081 4.5839 21.3583 4.0188 20.7941C3.45371 20.2289 3.1055 19.6605 2.84625 18.9928C2.59463 18.3447 2.42433 17.6068 2.3735 16.5249C2.32521 15.4404 2.3125 15.0956 2.3125 12.3337C2.3125 9.57171 2.32267 9.2269 2.3735 8.14245C2.42348 7.0597 2.59463 6.32262 2.84625 5.67449C3.10465 5.00519 3.45371 4.4384 4.0188 3.87329C4.5839 3.3082 5.15154 2.95999 5.82 2.70074C6.46813 2.44912 7.20521 2.27883 8.28796 2.22799C9.3724 2.1797 9.71722 2.16699 12.4792 2.16699Z" fill="white"/>
</g>
</svg>
