<svg width="25" height="25" viewBox="0 0 25 25" fill="none" xmlns="http://www.w3.org/2000/svg">
<g id="twitter-line">
<path id="Vector" d="M16.1676 5.77552C14.5594 5.77552 13.2484 7.06471 13.2198 8.66949L13.1912 10.2708C13.1852 10.6076 12.9072 10.8758 12.5704 10.8698C12.5464 10.8694 12.5225 10.8676 12.4988 10.8643L10.912 10.6479C8.82429 10.3632 6.82333 9.40229 4.90375 7.80283C4.29581 11.1676 5.48252 13.4993 8.34283 15.2975L10.1189 16.4141C10.4042 16.5935 10.49 16.97 10.3107 17.2552C10.2696 17.3206 10.2165 17.3775 10.1541 17.4231L8.53595 18.6053C9.49808 18.6658 10.4127 18.6236 11.1708 18.4724C15.967 17.5152 19.1564 13.9058 19.1564 7.95225C19.1564 7.46619 18.1272 5.77552 16.1676 5.77552ZM11.1867 8.63323C11.2351 5.92374 13.4466 3.74219 16.1676 3.74219C17.5536 3.74219 18.8075 4.30825 19.7106 5.22179C20.4338 5.21635 21.0491 5.39921 22.4237 4.56531C22.084 6.23302 21.9153 6.95686 21.1897 7.95225C21.1897 15.7212 16.4143 19.4994 11.5687 20.4664C8.24653 21.1293 3.41509 20.0408 2.03125 18.5943C2.73624 18.5401 5.60379 18.2317 7.26062 17.0189C5.85862 16.0933 0.278576 12.8089 3.94503 3.9825C5.66673 5.9921 7.41212 7.36001 9.18122 8.08622C10.3579 8.56926 10.647 8.55961 11.1867 8.63323Z" fill="white"/>
</g>
</svg>
